<?xml version="1.0" standalone="no"?>
<!DOCTYPE svg PUBLIC "-//W3C//DTD SVG 20010904//EN"
 "http://www.w3.org/TR/2001/REC-SVG-20010904/DTD/svg10.dtd">
<svg version="1.0" xmlns="http://www.w3.org/2000/svg"
 width="996.000000pt" height="476.000000pt" viewBox="0 0 996.000000 476.000000"
 preserveAspectRatio="xMidYMid meet">

<g transform="translate(0.000000,476.000000) scale(0.100000,-0.100000)"
fill="#000000" stroke="none">
<path d="M5788 2869 c-17 -7 -35 -26 -47 -53 -20 -40 -21 -60 -21 -373 0 -412
4 -427 117 -427 49 0 58 3 79 29 13 16 26 48 29 70 4 22 5 186 3 365 -3 294
-5 328 -21 352 -29 42 -84 57 -139 37z m73 -69 c18 -10 19 -25 19 -346 0 -212
-4 -342 -10 -355 -16 -29 -58 -25 -71 8 -6 16 -9 150 -7 355 3 279 5 330 18
338 19 12 27 12 51 0z"/>
<path d="M6998 2864 c-55 -29 -58 -54 -58 -429 0 -338 0 -342 23 -375 25 -38
64 -52 108 -40 17 5 44 6 60 3 l29 -6 -2 224 -3 224 -58 3 -58 3 3 -33 c2 -25
8 -34 26 -36 22 -3 22 -6 22 -147 0 -79 -3 -150 -6 -159 -9 -22 -51 -20 -64 3
-6 13 -10 141 -10 350 0 286 2 332 16 345 18 18 23 19 44 6 11 -7 16 -33 19
-97 4 -100 19 -124 55 -87 20 19 22 127 4 187 -20 66 -89 95 -150 61z"/>
<path d="M7254 2861 c-17 -11 -36 -34 -43 -52 -15 -42 -15 -693 -1 -736 6 -17
21 -36 34 -43 23 -12 29 -12 121 -8 l50 3 0 220 0 220 -58 3 -58 3 3 -33 c2
-25 8 -34 26 -36 22 -3 22 -6 22 -143 0 -78 -5 -149 -10 -160 -12 -22 -43 -25
-58 -6 -10 13 -17 287 -14 539 2 118 5 150 18 162 18 18 24 19 43 7 11 -7 16
-36 19 -100 4 -92 13 -108 47 -95 14 6 21 80 15 169 -6 87 -84 130 -156 86z"/>
<path d="M4718 2864 c-5 -4 -8 -196 -8 -426 l0 -418 76 0 c71 0 78 2 103 29
25 27 29 40 34 122 4 51 7 181 7 289 0 380 -7 402 -131 408 -41 2 -77 0 -81
-4z m120 -70 c22 -15 22 -15 22 -353 0 -249 -3 -340 -12 -349 -7 -7 -25 -12
-40 -12 l-28 0 0 358 c0 197 3 362 7 365 10 11 27 8 51 -9z"/>
<path d="M4980 2445 l0 -425 30 0 30 0 0 425 0 425 -30 0 -30 0 0 -425z"/>
<path d="M5151 2775 c-11 -94 -21 -184 -41 -385 -6 -58 -15 -139 -20 -180 -5
-41 -10 -100 -12 -130 -2 -55 -2 -55 27 -55 l30 0 8 90 c5 50 13 95 19 102 8
10 32 11 69 4 3 0 9 -42 13 -93 4 -50 9 -95 12 -100 3 -4 19 -8 36 -8 l30 0
-6 53 c-3 28 -11 108 -16 177 -6 69 -15 181 -21 250 -5 69 -14 176 -19 237 -5
62 -11 117 -15 123 -3 5 -23 10 -44 10 l-38 0 -12 -95z m70 -319 c6 -75 8
-144 5 -152 -4 -10 -16 -14 -33 -12 -32 3 -33 10 -19 168 17 197 31 196 47 -4z"/>
<path d="M5350 2444 l0 -425 28 3 27 3 5 230 c5 233 13 257 30 95 34 -325 35
-330 65 -330 13 0 26 3 28 8 3 4 15 93 27 197 29 252 29 255 40 255 6 0 10
-91 10 -231 l0 -230 28 3 27 3 0 420 0 420 -37 3 c-46 4 -37 36 -79 -308 -6
-47 -15 -112 -20 -146 -5 -33 -9 -75 -9 -92 0 -18 -4 -32 -9 -32 -10 0 -28
132 -62 435 -16 153 -13 145 -59 145 l-40 0 0 -426z"/>
<path d="M6007 2863 c-4 -3 -7 -195 -7 -425 l0 -418 30 0 30 0 0 230 c0 127 4
230 8 230 4 0 13 -39 20 -87 12 -85 18 -119 45 -288 l13 -80 37 -3 37 -3 0
425 0 426 -30 0 -30 0 0 -257 c0 -142 -4 -253 -9 -247 -4 5 -13 50 -20 99 -7
50 -16 117 -21 150 -5 33 -14 98 -21 145 -6 47 -13 91 -15 98 -4 12 -56 17
-67 5z"/>
<path d="M6280 2446 l0 -426 74 0 c139 0 146 21 146 432 0 276 -8 350 -40 390
-15 20 -30 23 -99 26 l-81 4 0 -426z m130 344 c19 -19 20 -33 20 -348 0 -360
-1 -367 -55 -360 l-30 3 -3 349 c-2 353 0 376 34 376 8 0 23 -9 34 -20z"/>
<path d="M6545 2857 c-3 -6 -4 -197 -3 -422 l3 -410 85 -3 c81 -3 87 -1 110
23 23 25 25 35 29 157 3 146 -3 211 -25 233 -13 13 -13 17 0 37 14 23 20 114
17 276 -1 63 -4 76 -26 97 -22 22 -32 25 -105 25 -55 0 -82 -4 -85 -13z m133
-63 c21 -14 22 -22 22 -153 0 -152 -5 -165 -57 -159 l-28 3 -3 150 c-1 82 0
155 2 162 7 18 37 16 64 -3z m10 -386 c8 -8 12 -58 12 -159 0 -161 -4 -173
-57 -167 l-28 3 -3 155 c-1 85 0 160 2 167 7 16 58 17 74 1z"/>
<path d="M6827 2864 c-4 -4 -7 -196 -7 -426 l0 -419 33 3 32 3 0 420 0 420
-25 3 c-14 2 -29 0 -33 -4z"/>
<path d="M7465 2858 c-3 -7 -4 -198 -3 -423 l3 -410 95 0 c95 0 95 0 95 25 0
23 -4 25 -60 30 l-60 5 0 165 0 165 53 3 c50 3 52 4 52 32 0 28 -2 29 -52 32
l-53 3 0 160 0 160 60 5 c56 5 60 7 60 30 0 25 -1 25 -93 28 -68 2 -94 -1 -97
-10z"/>
<path d="M7686 2855 c-3 -8 -4 -198 -3 -422 l2 -408 32 -3 33 -3 2 197 c2 135
7 199 14 201 15 5 23 -18 35 -99 8 -62 17 -122 37 -248 6 -42 9 -45 40 -48 39
-4 39 -17 2 211 -33 195 -33 195 -8 245 44 93 34 317 -18 368 -20 21 -33 24
-92 24 -53 0 -71 -4 -76 -15z m118 -58 c15 -11 17 -31 18 -145 1 -114 -2 -135
-17 -152 -22 -24 -41 -26 -49 -4 -3 9 -6 76 -6 149 0 168 7 187 54 152z"/>
</g>
</svg>
